<?xml version="1.0" encoding="UTF-8"?><svg id="Layer_1" xmlns="http://www.w3.org/2000/svg" viewBox="0 0 1500 600"><defs><style>.cls-1{fill:#141629;}.cls-2{fill:#fff;}</style></defs><rect class="cls-2" width="1500" height="600"/><path class="cls-1" d="M757.85,251.16v-8.35l38.45,47.12h-17.91l-29.66-37.35h6.37l-29.77,37.35h-17.47l38.56-46.9v7.91l-35.81-43.39h18.01l27.13,33.94h-6.59l26.91-33.94h17.47l-35.7,43.61Z"/><path class="cls-1" d="M804.87,207.55h14.5v82.38h-14.5v-82.38ZM812.66,242.04h66.13v12.74h-66.13v-12.74ZM871.87,207.55h14.5v82.38h-14.5v-82.38Z"/><path class="cls-1" d="M947.67,291.47c-9.37,0-17.61-1.79-24.72-5.38-7.1-3.59-12.63-8.59-16.59-14.99-3.95-6.41-5.93-13.86-5.93-22.35s1.98-15.94,5.93-22.35c3.95-6.41,9.48-11.4,16.59-14.99,7.1-3.59,15.34-5.38,24.72-5.38s17.61,1.8,24.72,5.38c7.1,3.59,12.63,8.59,16.59,14.99,3.95,6.41,5.93,13.86,5.93,22.35s-1.98,15.95-5.93,22.35c-3.95,6.41-9.48,11.41-16.59,14.99-7.1,3.59-15.34,5.38-24.72,5.38ZM947.67,278.51c6.66,0,12.41-1.21,17.25-3.62,4.83-2.42,8.59-5.86,11.26-10.33,2.67-4.47,4.01-9.74,4.01-15.82s-1.34-11.35-4.01-15.82c-2.67-4.47-6.43-7.91-11.26-10.33-4.83-2.42-10.58-3.63-17.25-3.63s-12.32,1.21-17.19,3.63c-4.87,2.42-8.64,5.86-11.31,10.33-2.67,4.47-4.01,9.74-4.01,15.82s1.34,11.35,4.01,15.82c2.67,4.47,6.44,7.91,11.31,10.33,4.87,2.42,10.6,3.62,17.19,3.62Z"/><path class="cls-1" d="M1019.07,244.68h33.5c4.83,0,8.66-1.1,11.48-3.3,2.82-2.2,4.23-5.2,4.23-9.01s-1.41-6.9-4.23-9.06c-2.82-2.16-6.65-3.24-11.48-3.24h-35.59l6.48-8.13v77.99h-14.5v-82.38h44.93c5.78,0,10.86,1.04,15.21,3.13,4.36,2.09,7.76,4.98,10.22,8.68,2.45,3.7,3.68,8.04,3.68,13.02s-1.23,9.1-3.68,12.8c-2.45,3.7-5.86,6.59-10.22,8.68-4.36,2.09-9.43,3.13-15.21,3.13h-34.82v-12.3ZM1035.32,251.38h17.03l32.73,38.56h-17.36l-32.4-38.56Z"/><path class="cls-1" d="M1087.72,207.55h82.6v12.74h-82.6v-12.74ZM1121.77,214.25h14.5v75.68h-14.5v-75.68Z"/><path class="cls-1" d="M648.08,248.74l-5.82,36.8-6.92-8.13h63.93v12.52h-71.84l6.59-41.19-6.59-41.19h71.29v12.52h-63.38l6.92-8.13,5.82,36.8ZM696.08,242.7v12.08h-57.56v-12.08h57.56Z"/><path class="cls-1" d="M589.66,403.03h-6.81l35.48-76.23h15.49l-39.76,82.38h-16.15l-39.76-82.38h15.6l35.92,76.23Z"/><path class="cls-1" d="M661.61,367.99l-5.82,36.8-6.92-8.13h63.93v12.52h-71.84l6.59-41.19-6.59-41.19h71.29v12.52h-63.38l6.92-8.13,5.82,36.8ZM709.61,361.95v12.08h-57.56v-12.08h57.56Z"/><path class="cls-1" d="M804.3,400.4l-5.93.66v-74.26h14.06v82.38h-18.45l-57.78-74.26,5.82-.66v74.92h-14.06v-82.38h18.89l57.45,73.6Z"/><path class="cls-1" d="M823.41,326.8h82.6v12.74h-82.6v-12.74ZM857.46,333.5h14.5v75.68h-14.5v-75.68Z"/><path class="cls-1" d="M930.4,373.81c0,4.91.99,9.15,2.97,12.74,1.98,3.59,4.81,6.35,8.51,8.29,3.7,1.94,8.11,2.91,13.24,2.91s9.63-.97,13.29-2.91c3.66-1.94,6.48-4.7,8.46-8.29,1.98-3.59,2.97-7.83,2.97-12.74v-47.01h14.5v47.56c0,7.25-1.65,13.6-4.94,19.06-3.3,5.46-7.87,9.7-13.73,12.74-5.86,3.04-12.71,4.56-20.54,4.56s-14.59-1.52-20.49-4.56c-5.9-3.04-10.49-7.29-13.79-12.74-3.3-5.45-4.94-11.81-4.94-19.06v-47.56h14.5v47.01Z"/><path class="cls-1" d="M1021.8,363.93h33.5c4.83,0,8.66-1.1,11.48-3.3,2.82-2.2,4.23-5.2,4.23-9.01s-1.41-6.9-4.23-9.06c-2.82-2.16-6.65-3.24-11.48-3.24h-35.59l6.48-8.13v77.99h-14.5v-82.38h44.93c5.78,0,10.86,1.04,15.21,3.13,4.36,2.09,7.76,4.98,10.22,8.68,2.45,3.7,3.68,8.04,3.68,13.02s-1.23,9.1-3.68,12.8c-2.45,3.7-5.86,6.59-10.22,8.68-4.36,2.09-9.43,3.13-15.21,3.13h-34.82v-12.3ZM1038.05,370.63h17.03l32.73,38.56h-17.36l-32.4-38.56Z"/><path class="cls-1" d="M1118.57,367.99l-5.82,36.8-6.92-8.13h63.93v12.52h-71.84l6.59-41.19-6.59-41.19h71.29v12.52h-63.38l6.92-8.13,5.82,36.8ZM1166.57,361.95v12.08h-57.56v-12.08h57.56Z"/><path class="cls-1" d="M1179.86,382.38h14.72c.44,3.29,1.81,6.19,4.12,8.68,2.31,2.49,5.36,4.41,9.17,5.77,3.81,1.36,8.2,2.03,13.18,2.03,7.4,0,13.25-1.15,17.58-3.46,4.32-2.31,6.48-5.44,6.48-9.39,0-3.22-1.25-5.64-3.73-7.25-2.49-1.61-6.99-2.82-13.51-3.62l-17.8-2.31c-9.96-1.32-17.19-3.79-21.69-7.41-4.5-3.62-6.76-8.77-6.76-15.43,0-5.05,1.52-9.43,4.56-13.13,3.04-3.7,7.34-6.55,12.91-8.57,5.56-2.01,12.08-3.02,19.55-3.02s13.95,1.1,19.66,3.29c5.71,2.2,10.27,5.26,13.68,9.17,3.41,3.92,5.25,8.51,5.55,13.79h-14.72c-.37-2.93-1.59-5.45-3.68-7.58-2.09-2.12-4.89-3.79-8.4-5-3.52-1.21-7.65-1.81-12.41-1.81-6.74,0-12.12,1.1-16.15,3.3-4.03,2.2-6.04,5.2-6.04,9.01,0,2.93,1.19,5.18,3.57,6.76,2.38,1.58,6.54,2.77,12.47,3.57l18.02,2.53c7.4,1.03,13.24,2.4,17.52,4.12,4.28,1.72,7.34,4.03,9.17,6.92,1.83,2.89,2.75,6.61,2.75,11.15,0,5.27-1.61,9.89-4.83,13.84-3.22,3.95-7.74,7.01-13.57,9.17-5.82,2.16-12.62,3.24-20.38,3.24s-14.88-1.19-20.93-3.57c-6.04-2.38-10.82-5.69-14.34-9.94-3.51-4.25-5.42-9.19-5.71-14.83Z"/><path class="cls-1" d="M367.34,313.72l71.48-108.2h61.2l-136.87,204.71h-7.2l-131.8-204.71h58.77l68.94,107.03c19.77,31,31.41,38.97,39.01,56.22"/><polygon class="cls-1" points="340.76 205.52 211.52 410.23 267.51 410.23 399.02 205.52 340.76 205.52"/></svg>