<svg version="1.2" xmlns="http://www.w3.org/2000/svg" viewBox="0 0 1500 294" width="1500" height="294">
	<style>
		.s0 { fill: #141629 } 
	</style>
	<rect width="1500" height="294" id="Color Fill 1" style="fill: #ffffff"/>
	<path class="s0" d="m781.89 65.32v-11.95l55.02 67.44h-25.63l-42.45-53.45h9.12l-42.6 53.45h-25l55.18-67.13v11.32l-51.25-62.1h25.78l38.83 48.58h-9.43l38.52-48.58h25c0 0-51.09 62.41-51.09 62.42z"/>
	<path class="s0" d="m849.18 2.9h20.75v117.91h-20.75zm11.16 49.37h94.64v18.24h-94.64zm84.74-49.37h20.75v117.91h-20.75z"/>
	<path class="s0" d="m1053.55 123.01q-20.13 0-35.37-7.7-15.25-7.7-23.74-21.46-8.49-13.75-8.49-31.99 0-18.24 8.49-31.99 8.49-13.75 23.74-21.46 15.25-7.7 35.37-7.7 20.12 0 35.37 7.7 15.24 7.71 23.74 21.46 8.49 13.76 8.49 31.99 0 18.23-8.49 31.99-8.49 13.75-23.74 21.46-15.26 7.71-35.37 7.7zm0-18.55q14.3 0 24.68-5.19 10.38-5.18 16.11-14.78 5.73-9.59 5.74-22.64 0-13.05-5.74-22.64-5.75-9.59-16.11-14.78-10.38-5.19-24.68-5.19c-9.53 0-17.63 1.73-24.6 5.19q-10.46 5.19-16.19 14.78-5.74 9.59-5.74 22.64 0 13.05 5.74 22.64 5.73 9.59 16.19 14.78 10.46 5.19 24.6 5.19z"/>
	<path class="s0" d="m1155.74 56.04h47.95q10.38 0 16.43-4.72 6.05-4.71 6.05-12.89c0-5.45-2.02-9.88-6.05-12.97q-6.05-4.64-16.43-4.64h-50.94l9.28-11.63v111.62h-20.75v-117.91h64.3q12.42 0 21.77 4.48 9.35 4.49 14.62 12.42 5.27 7.94 5.27 18.63c0 7.13-1.76 13.02-5.27 18.31q-5.27 7.93-14.62 12.42-9.36 4.48-21.77 4.48h-49.84c0 0 0-17.61 0-17.6zm23.26 9.59h24.37l46.85 55.18h-24.84z"/>
	<path class="s0" d="m1253.99 2.9h118.22v18.24h-118.22zm48.74 9.59h20.75v108.32h-20.75z"/>
	<path class="s0" d="m624.79 61.86l-8.33 52.67-9.9-11.63h91.5v17.92h-102.82l9.43-58.95-9.43-58.95h102.03v17.92h-90.71l9.9-11.63 8.33 52.67zm68.7-8.65v17.29h-82.38v-17.29z"/>
	<path class="s0" d="m541.18 282.68h-9.75l50.78-109.1h22.17l-56.91 117.91h-23.11l-56.91-117.91h22.32z"/>
	<path class="s0" d="m644.16 232.53l-8.33 52.67-9.9-11.63h91.5v17.92h-102.82l9.43-58.95-9.43-58.95h102.03v17.92h-90.71l9.9-11.63 8.33 52.67zm68.7-8.65v17.29h-82.38v-17.29z"/>
	<path class="s0" d="m848.37 278.9l-8.49 0.94v-106.27h20.12v117.91h-26.41l-82.69-106.27 8.33-0.94v107.22h-20.12v-117.91h27.04l82.22 105.33z"/>
	<path class="s0" d="m875.72 173.57h118.22v18.24h-118.22zm48.74 9.59h20.75v108.32h-20.75z"/>
	<path class="s0" d="m1028.85 240.86q0 10.53 4.24 18.24 4.24 7.7 12.18 11.87 7.94 4.17 18.94 4.17c7.33 0 13.78-1.39 19.02-4.17q7.86-4.16 12.11-11.87 4.24-7.69 4.24-18.24v-67.29h20.75v68.07q0 15.57-7.07 27.28-7.08 11.71-19.65 18.24-12.58 6.52-29.4 6.52c-11.22 0-20.88-2.18-29.32-6.52q-12.66-6.53-19.73-18.24-7.07-11.71-7.07-27.28v-68.07h20.75v67.29z"/>
	<path class="s0" d="m1159.64 226.71h47.95q10.38 0 16.43-4.72 6.05-4.71 6.05-12.89c0-5.45-2.02-9.88-6.05-12.97q-6.05-4.64-16.43-4.64h-50.94l9.28-11.63v111.62h-20.75v-117.91h64.3q12.42 0 21.77 4.48 9.35 4.49 14.62 12.42 5.27 7.93 5.27 18.63c0 7.13-1.76 13.02-5.27 18.31q-5.27 7.93-14.62 12.42-9.36 4.48-21.77 4.48h-49.84v-17.61zm23.27 9.59h24.37l46.85 55.18h-24.84z"/>
	<path class="s0" d="m1298.14 232.53l-8.33 52.67-9.9-11.63h91.5v17.92h-102.82l9.43-58.95-9.43-58.95h102.03v17.92h-90.71l9.9-11.63 8.33 52.67zm68.71-8.65v17.29h-82.38v-17.29z"/>
	<path class="s0" d="m1385.87 253.12h21.07q0.94 7.08 5.9 12.42 4.95 5.35 13.13 8.25 8.18 2.91 18.87 2.91 15.88 0 25.15-4.95 9.27-4.95 9.28-13.44 0-6.91-5.34-10.38-5.34-3.45-19.34-5.19l-25.47-3.3q-21.37-2.83-31.05-10.61-9.67-7.78-9.67-22.09 0-10.84 6.52-18.79 6.53-7.94 18.47-12.26 11.94-4.32 27.98-4.32c10.69 0 19.97 1.57 28.14 4.72q12.27 4.71 19.57 13.13 7.31 8.41 7.94 19.73h-21.07q-0.79-6.29-5.27-10.85-4.48-4.56-12.03-7.15-7.54-2.59-17.76-2.59-14.46 0-23.11 4.72-8.65 4.71-8.65 12.89 0 6.29 5.11 9.67 5.1 3.39 17.84 5.11l25.78 3.62q15.87 2.2 25.07 5.9 9.2 3.7 13.13 9.9 3.93 6.21 3.93 15.96 0 11.32-6.92 19.81-6.91 8.49-19.42 13.13-12.49 4.64-29.16 4.64c-11.11 0-21.3-1.7-29.95-5.11q-12.97-5.1-20.52-14.23-7.55-9.12-8.17-21.22z"/>
	<path class="s0" d="m223 154.86l102.3-154.86h87.59l-195.89 292.98h-10.31l-188.63-292.98h84.11l98.67 153.18c28.3 44.37 44.95 55.77 55.83 80.46"/>
	<path fill-rule="evenodd" class="s0" d="m184.96 0l-184.96 292.98h80.13l188.21-292.98h-83.38z"/>
</svg>