<?xml version="1.0" encoding="UTF-8"?><svg id="Layer_1" xmlns="http://www.w3.org/2000/svg" viewBox="0 0 1500 293.68"><defs><style>.cls-1{fill:#acb0d9;}</style></defs><path class="cls-1" d="M781.89,65.32v-11.95l55.02,67.44h-25.63l-42.45-53.45h9.12l-42.6,53.45h-25l55.18-67.13v11.32l-51.25-62.1h25.78l38.83,48.58h-9.43l38.52-48.58h25l-51.09,62.41Z"/><path class="cls-1" d="M849.18,2.9h20.75v117.91h-20.75V2.9ZM860.34,52.27h94.64v18.24h-94.64v-18.24ZM945.08,2.9h20.75v117.91h-20.75V2.9Z"/><path class="cls-1" d="M1053.55,123.01c-13.42,0-25.21-2.57-35.37-7.7-10.17-5.13-18.08-12.29-23.74-21.46-5.66-9.17-8.49-19.83-8.49-31.99s2.83-22.82,8.49-31.99c5.66-9.17,13.57-16.32,23.74-21.46,10.16-5.13,21.96-7.7,35.37-7.7s25.2,2.57,35.37,7.7c10.16,5.14,18.08,12.29,23.74,21.46,5.66,9.17,8.49,19.84,8.49,31.99s-2.83,22.82-8.49,31.99c-5.66,9.17-13.57,16.32-23.74,21.46-10.17,5.14-21.96,7.7-35.37,7.7ZM1053.55,104.46c9.54,0,17.76-1.73,24.68-5.19,6.92-3.46,12.29-8.38,16.11-14.78,3.82-6.39,5.74-13.94,5.74-22.64s-1.91-16.24-5.74-22.64c-3.83-6.39-9.2-11.32-16.11-14.78-6.92-3.46-15.15-5.19-24.68-5.19s-17.63,1.73-24.6,5.19c-6.97,3.46-12.37,8.39-16.19,14.78-3.83,6.39-5.74,13.94-5.74,22.64s1.91,16.25,5.74,22.64c3.82,6.39,9.22,11.32,16.19,14.78,6.97,3.46,15.17,5.19,24.6,5.19Z"/><path class="cls-1" d="M1155.74,56.04h47.95c6.92,0,12.39-1.57,16.43-4.72,4.03-3.14,6.05-7.44,6.05-12.89s-2.02-9.88-6.05-12.97c-4.04-3.09-9.51-4.64-16.43-4.64h-50.94l9.28-11.63v111.62h-20.75V2.9h64.3c8.28,0,15.54,1.49,21.77,4.48,6.23,2.99,11.11,7.13,14.62,12.42,3.51,5.29,5.27,11.5,5.27,18.63s-1.76,13.02-5.27,18.31c-3.51,5.29-8.39,9.43-14.62,12.42-6.24,2.99-13.5,4.48-21.77,4.48h-49.84v-17.61ZM1179,65.63h24.37l46.85,55.18h-24.84l-46.38-55.18Z"/><path class="cls-1" d="M1253.99,2.9h118.22v18.24h-118.22V2.9ZM1302.73,12.49h20.75v108.32h-20.75V12.49Z"/><path class="cls-1" d="M624.79,61.86l-8.33,52.67-9.9-11.63h91.5v17.92h-102.82l9.43-58.95-9.43-58.95h102.03v17.92h-90.71l9.9-11.63,8.33,52.67ZM693.49,53.21v17.29h-82.38v-17.29h82.38Z"/><path class="cls-1" d="M541.18,282.68h-9.75l50.78-109.1h22.17l-56.91,117.91h-23.11l-56.91-117.91h22.32l51.41,109.1Z"/><path class="cls-1" d="M644.16,232.53l-8.33,52.67-9.9-11.63h91.5v17.92h-102.82l9.43-58.95-9.43-58.95h102.03v17.92h-90.71l9.9-11.63,8.33,52.67ZM712.86,223.88v17.29h-82.38v-17.29h82.38Z"/><path class="cls-1" d="M848.37,278.9l-8.49.94v-106.27h20.12v117.91h-26.41l-82.69-106.27,8.33-.94v107.22h-20.12v-117.91h27.04l82.22,105.33Z"/><path class="cls-1" d="M875.72,173.57h118.22v18.24h-118.22v-18.24ZM924.46,183.16h20.75v108.32h-20.75v-108.32Z"/><path class="cls-1" d="M1028.85,240.86c0,7.02,1.41,13.1,4.24,18.24,2.83,5.14,6.89,9.09,12.18,11.87,5.29,2.78,11.61,4.17,18.94,4.17s13.78-1.39,19.02-4.17c5.24-2.78,9.28-6.73,12.11-11.87,2.83-5.13,4.24-11.21,4.24-18.24v-67.29h20.75v68.07c0,10.38-2.36,19.47-7.07,27.28-4.72,7.81-11.27,13.89-19.65,18.24-8.39,4.35-18.18,6.52-29.4,6.52s-20.88-2.18-29.32-6.52c-8.44-4.35-15.01-10.43-19.73-18.24-4.72-7.81-7.07-16.9-7.07-27.28v-68.07h20.75v67.29Z"/><path class="cls-1" d="M1159.64,226.71h47.95c6.92,0,12.39-1.57,16.43-4.72,4.03-3.14,6.05-7.44,6.05-12.89s-2.02-9.88-6.05-12.97c-4.04-3.09-9.51-4.64-16.43-4.64h-50.94l9.28-11.63v111.62h-20.75v-117.91h64.3c8.28,0,15.54,1.49,21.77,4.48,6.23,2.99,11.11,7.13,14.62,12.42,3.51,5.29,5.27,11.5,5.27,18.63s-1.76,13.02-5.27,18.31c-3.51,5.29-8.39,9.43-14.62,12.42-6.24,2.99-13.5,4.48-21.77,4.48h-49.84v-17.61ZM1182.91,236.3h24.37l46.85,55.18h-24.84l-46.38-55.18Z"/><path class="cls-1" d="M1298.14,232.53l-8.33,52.67-9.9-11.63h91.5v17.92h-102.82l9.43-58.95-9.43-58.95h102.03v17.92h-90.71l9.9-11.63,8.33,52.67ZM1366.85,223.88v17.29h-82.38v-17.29h82.38Z"/><path class="cls-1" d="M1385.87,253.12h21.07c.63,4.72,2.59,8.86,5.9,12.42,3.3,3.56,7.68,6.32,13.13,8.25,5.45,1.94,11.74,2.91,18.87,2.91,10.58,0,18.97-1.65,25.15-4.95,6.18-3.3,9.28-7.78,9.28-13.44,0-4.61-1.78-8.07-5.34-10.38-3.56-2.3-10.01-4.03-19.34-5.19l-25.47-3.3c-14.25-1.89-24.6-5.42-31.05-10.61-6.45-5.19-9.67-12.55-9.67-22.09,0-7.23,2.17-13.49,6.52-18.79,4.35-5.29,10.51-9.38,18.47-12.26,7.96-2.88,17.29-4.32,27.98-4.32s19.97,1.57,28.14,4.72c8.18,3.14,14.7,7.52,19.57,13.13,4.87,5.61,7.52,12.18,7.94,19.73h-21.07c-.53-4.19-2.28-7.81-5.27-10.85-2.99-3.04-7-5.42-12.03-7.15-5.03-1.73-10.95-2.59-17.76-2.59-9.64,0-17.35,1.57-23.11,4.72-5.77,3.14-8.65,7.44-8.65,12.89,0,4.19,1.7,7.42,5.11,9.67,3.4,2.26,9.35,3.96,17.84,5.11l25.78,3.62c10.58,1.47,18.94,3.43,25.07,5.9,6.13,2.46,10.51,5.77,13.13,9.9,2.62,4.14,3.93,9.46,3.93,15.96,0,7.55-2.31,14.15-6.92,19.81-4.61,5.66-11.08,10.04-19.42,13.13-8.33,3.09-18.05,4.64-29.16,4.64s-21.3-1.7-29.95-5.11c-8.65-3.4-15.49-8.15-20.52-14.23-5.03-6.08-7.76-13.15-8.17-21.22Z"/><path class="cls-1" d="M223,154.86L325.3,0h87.59l-195.89,292.98h-10.31L18.06,0h84.11l98.67,153.18c28.3,44.37,44.95,55.77,55.83,80.46"/><polygon class="cls-1" points="184.96 0 0 292.98 80.13 292.98 268.34 0 184.96 0"/></svg>